<svg xmlns="http://www.w3.org/2000/svg" width="39" height="36" viewBox="0 0 39 36" fill="none">
  <path d="M0.399896 18.1734C0.357837 18.7875 0.462986 19.5854 0.562877 20.3832C0.615451 20.8084 0.689056 21.2283 0.788947 21.643C2.70791 29.2751 7.69722 33.7998 15.1996 35.7367C16.9083 36.1776 16.903 36.1199 16.9135 34.3457C16.9188 33.8365 16.7663 33.6895 16.2616 33.5951C14.3637 33.2539 12.5761 32.5977 10.8937 31.6477C4.68471 28.157 1.44087 21.1811 3.16005 14.4885C4.78986 8.13718 9.07467 4.32112 15.3258 2.61518C16.9924 2.15851 16.9924 2.19 16.9135 0.431573C16.8977 0.0798869 16.8557 -0.0723355 16.4456 0.0326455C15.6675 0.232109 14.8631 0.342339 14.0903 0.55755C6.0201 2.79365 0.436698 9.91136 0.399896 18.1734Z" fill="#FDFEFD"/>
  <path d="M38.711 17.8374C38.7373 17.0605 38.6532 16.1315 38.485 15.2129C37.118 7.70149 31.419 1.8698 23.8745 0.253091C22.3551 -0.0723496 22.3551 -0.0723495 22.3604 1.49712C22.3604 1.59685 22.3762 1.70183 22.3604 1.80156C22.292 2.22148 22.4918 2.33696 22.8861 2.41045C25.0364 2.81988 27.0448 3.59674 28.8954 4.76727C34.4735 8.28938 37.3862 14.4518 36.0928 20.8241C34.7417 27.4799 30.4148 31.5059 23.9692 33.3536C22.3026 33.8313 22.292 33.7893 22.3604 35.5162C22.3604 35.5424 22.3604 35.5687 22.3604 35.5897C22.3236 35.9151 22.4235 36.0464 22.781 35.9571C23.5118 35.7787 24.2636 35.6632 24.9891 35.4637C33.0435 33.2906 38.7163 26.0627 38.711 17.8374Z" fill="#FDFEFD"/>
  <path d="M0.39981 18.1734C0.431355 9.91136 6.02001 2.79365 14.0902 0.55755C14.863 0.342339 15.6674 0.232109 16.4455 0.0326455C16.8556 -0.0723355 16.8977 0.0798869 16.9134 0.431573C16.9976 2.19 16.9976 2.15851 15.3257 2.61518C9.07459 4.32112 4.79503 8.14242 3.15997 14.4885C1.44078 21.1811 4.68463 28.1571 10.8989 31.6529C12.5813 32.603 14.3741 33.2591 16.2668 33.6003C16.7662 33.6895 16.9239 33.8365 16.9187 34.3509C16.9029 36.1251 16.9134 36.1828 15.2048 35.7419C7.7024 33.805 2.71308 29.2856 0.794118 21.6482C0.68897 21.2336 0.620623 20.8084 0.568049 20.3885C0.468157 19.5906 0.357751 18.7875 0.39981 18.1734Z" fill="#00AD8B"/>
  <path d="M38.711 17.8374C38.7163 26.0627 33.0435 33.2854 24.9891 35.4637C24.2636 35.6579 23.5118 35.7786 22.781 35.9571C22.4235 36.0464 22.3236 35.9151 22.3604 35.5897C22.3657 35.5634 22.3604 35.5372 22.3604 35.5162C22.292 33.7893 22.3026 33.8313 23.9692 33.3536C30.4095 31.5007 34.7417 27.4747 36.0928 20.8241C37.3862 14.4518 34.4735 8.28938 28.8901 4.76727C27.0343 3.59673 25.0259 2.81988 22.8809 2.41045C22.4866 2.33696 22.2868 2.22148 22.3551 1.80156C22.3709 1.70183 22.3551 1.6021 22.3551 1.49712C22.3551 -0.0723495 22.3551 -0.0723496 23.8693 0.253091C31.4137 1.8698 37.1128 7.70149 38.4797 15.2129C38.6532 16.1315 38.7373 17.0605 38.711 17.8374Z" fill="#00AD8B"/>
  <path d="M19.495 22.3987C20.047 22.3987 20.6043 22.3987 21.1564 22.3987C21.5086 22.3987 21.64 22.4879 21.5139 22.8973C20.8462 25.0442 20.9566 27.2121 21.5033 29.3589C21.6558 29.9626 21.4771 30.036 20.9618 30.0256C20.005 29.9993 19.0481 29.9941 18.0913 30.0256C17.5497 30.0465 17.371 29.9101 17.534 29.3484C18.1438 27.1858 18.3226 25.0127 17.5182 22.8449C17.392 22.5037 17.5024 22.3882 17.8389 22.3882C18.3857 22.4039 18.9377 22.3987 19.495 22.3987ZM21.1301 22.7609C20.1732 22.7609 19.2689 22.7661 18.3647 22.7609C18.0965 22.7609 17.9335 22.7819 18.0439 23.1335C18.6643 25.1124 18.5276 27.1018 18.0282 29.0755C17.9283 29.4692 17.9861 29.6319 18.4277 29.6161C19.1796 29.5951 19.9366 29.6004 20.6937 29.6161C21.0617 29.6214 21.1721 29.5269 21.0827 29.1332C20.578 27.0283 20.5097 24.9182 21.1301 22.7609Z" fill="#00AD8B"/>
  <path d="M19.4581 21.706C18.9797 21.706 18.496 21.6692 18.0229 21.7165C17.434 21.7742 17.4077 21.5065 17.5392 21.0498C18.0597 19.2389 18.2174 17.407 17.8283 15.5436C17.7337 15.0869 17.2605 14.5358 17.5444 14.2313C17.8388 13.9111 18.5013 14.1421 19.0007 14.1316C19.7315 14.1158 20.4623 14.1316 21.1931 14.1263C21.5243 14.1263 21.6347 14.2051 21.519 14.5725C20.8408 16.7509 20.967 18.9397 21.5085 21.1181C21.6347 21.622 21.5348 21.7427 21.0459 21.7165C20.5149 21.6797 19.9891 21.706 19.4581 21.706ZM21.1353 14.4833C20.068 14.4833 19.0428 14.4833 17.9492 14.4833C18.6537 16.6354 18.5486 18.7665 17.9966 20.8976C17.9019 21.2703 18.1017 21.3228 18.4014 21.3175C19.1585 21.3123 19.9155 21.3018 20.6726 21.3228C21.0985 21.3333 21.1721 21.1916 21.0774 20.7821C20.5832 18.6983 20.5149 16.6039 21.1353 14.4833Z" fill="#00AD8B"/>
  <path d="M19.5371 5.82231C20.0891 5.82231 20.6464 5.82756 21.1985 5.82231C21.5402 5.81706 21.6243 5.91679 21.5139 6.27373C20.8357 8.44684 20.9619 10.6357 21.4981 12.8088C21.6243 13.3075 21.5349 13.4229 21.046 13.4124C20.0155 13.3914 18.9798 13.3862 17.9494 13.4124C17.4552 13.4229 17.4131 13.2235 17.5235 12.8245C18.1281 10.6357 18.3279 8.44159 17.513 6.25273C17.3763 5.88005 17.5708 5.81706 17.8758 5.82231C18.433 5.82231 18.9851 5.82231 19.5371 5.82231ZM21.1249 6.1635C20.147 6.1635 19.2217 6.16875 18.3016 6.1635C18.0387 6.1635 17.9283 6.24224 18.0177 6.52044C18.6644 8.52557 18.5119 10.5307 18.0019 12.5358C17.8915 12.961 18.0387 13.066 18.4383 13.0555C19.1901 13.0345 19.9472 13.0398 20.7043 13.0555C21.0828 13.066 21.1879 12.9453 21.0933 12.5673C20.5781 10.452 20.5255 8.34186 21.1249 6.1635Z" fill="#00AD8B"/>
  <path d="M26.1824 19.1392C26.3033 19.1444 26.4768 19.1497 26.6503 19.1654C27.0288 19.1969 27.1287 19.3386 26.9237 19.7008C26.3717 20.6666 24.174 21.7374 23.0752 21.5537C22.3655 21.433 22.2603 21.139 22.7125 20.5564C23.4748 19.5748 24.6104 19.2179 26.1824 19.1392ZM22.8281 21.0446C23.9427 21.3753 25.6829 20.6456 26.4453 19.5276C24.9942 19.5118 23.7324 19.748 22.8281 21.0446Z" fill="#00AD8B"/>
  <path d="M16.6244 12.478C17.1764 13.0449 16.6244 13.1604 16.2616 13.2339C15.5466 13.3809 14.8684 13.1657 14.2165 12.8665C13.6907 12.6198 13.1808 12.3468 12.7707 11.9216C12.5341 11.6749 12.1082 11.4282 12.2607 11.0765C12.3869 10.7826 12.8548 10.8771 13.165 10.8981C14.1166 10.9558 15.0787 11.0188 15.8463 11.7064C15.82 11.8114 15.799 11.9111 15.7727 12.0161C14.8789 11.444 13.9273 11.1448 12.7444 11.3442C13.6382 12.2786 14.6318 12.751 15.7727 12.919C16.0093 12.9557 16.2879 12.9819 16.4193 12.6828C16.4982 12.6093 16.5613 12.5463 16.6244 12.478Z" fill="#00AD8B"/>
  <path d="M24.8944 23.9368C23.9323 23.8843 23.1227 23.6271 22.5549 22.8607C22.2499 22.4513 22.3866 22.2361 22.8545 22.1416C23.6484 21.9894 25.1626 22.7662 25.4202 23.5168C25.6252 24.131 25.0364 23.8055 24.8944 23.9368ZM22.844 22.4775C23.4644 23.3384 24.0585 23.5903 24.8997 23.4014C24.3371 22.845 23.722 22.4828 22.844 22.4775Z" fill="#00AD8B"/>
  <path d="M15.2258 14.1212C15.7674 13.822 16.5192 13.5175 16.8031 14.1159C17.0502 14.6303 16.2931 15.045 15.8042 15.3127C15.3205 15.5752 14.7685 15.6644 14.2112 15.6382C13.717 15.6119 13.6539 15.3915 14.0009 15.045C14.1165 15.0503 14.2322 15.0555 14.3479 15.0608C15.1207 15.3915 15.9303 15.0503 16.3194 14.2262C16.004 14.0949 15.7306 14.3259 15.4414 14.3206C15.3678 14.2577 15.2995 14.1894 15.2258 14.1212Z" fill="#00AD8B"/>
  <path d="M14.3531 15.0659C14.2374 15.0607 14.1218 15.0554 14.0061 15.0502C14.29 14.5778 14.7159 14.2891 15.2311 14.1211C15.3047 14.1893 15.373 14.2576 15.4466 14.3258C15.0786 14.5725 14.7159 14.8192 14.3531 15.0659Z" fill="#00AD8B"/>
  <path d="M15.7832 12.0111C15.8095 11.9061 15.8305 11.8064 15.8568 11.7014C16.2038 11.8694 16.4667 12.1266 16.6297 12.4783C16.5666 12.5413 16.4982 12.6095 16.4351 12.6725C16.2143 12.452 15.9988 12.2316 15.7832 12.0111Z" fill="#00AD8B"/>
</svg>