<svg><linearGradient id="a" x1="4" x2="60" y1="32" y2="32" gradientUnits="userSpaceOnUse"><stop offset="0" stop-color="#00c0ff"></stop><stop offset="1" stop-color="#5558ff"></stop></linearGradient><path fill="url(#a)" d="M39.03 58.522a27.195 27.195 0 0 1-7.214.95A27.848 27.848 0 0 1 4 31.647C6.113-10.205 67.593-1.52 58.67 38.921a13.855 13.855 0 0 0-3.411-2.892C58.116 21.6 46.54 7.647 31.816 7.803A23.87 23.87 0 0 0 7.972 31.647C7.662 46.108 21.973 58.1 36.148 55.09a13.014 13.014 0 0 0 2.882 3.432zm9.035 1.34c-10.883.006-16.013-13.593-8.005-20.76 5.03-4.832 14.098-3.774 17.86 2.14 5.423 7.647-.424 18.759-9.855 18.62zm5.263-14.207-4.503-5.203a1.03 1.03 0 0 0-1.51 0l-4.513 5.202a1 1 0 0 0 1.51 1.311l2.752-3.182V54.77a1 1 0 0 0 2.001 0V43.783l2.752 3.182a1.01 1.01 0 0 0 1.41.1.99.99 0 0 0 .1-1.41zm-35.99 2.34A21.756 21.756 0 0 0 31.815 53.5a21.092 21.092 0 0 0 3.371-.27 13.797 13.797 0 0 1-1.05-5.293 13.993 13.993 0 0 1 4.102-9.866c-8.205-4.127-18.937.956-20.902 9.926zM39.9 36.67a16.934 16.934 0 0 0-24.183 9.715C2.93 32.545 12.949 9.758 31.816 9.805a21.923 21.923 0 0 1 21.582 25.274 13.879 13.879 0 0 0-13.498 1.59zm1.861-12.968c-.54-13.173-19.342-13.186-19.881 0a9.94 9.94 0 1 0 19.881 0zm-9.945-7.934c-10.514.4-10.506 15.479 0 15.879 10.52-.397 10.526-15.482 0-15.88z" opacity="1" data-original="url(#a)" class=""></path></svg>